<?xml version="1.0" encoding="UTF-8"?>
<svg id="Layer_1" data-name="Layer 1" xmlns="http://www.w3.org/2000/svg" xmlns:xlink="http://www.w3.org/1999/xlink" viewBox="0 0 119.68 83.32">
  <defs>
    <style>
      .cls-1 {
        fill: url(#linear-gradient);
      }

      .cls-1, .cls-2, .cls-3, .cls-4, .cls-5, .cls-6 {
        stroke-width: 0px;
      }

      .cls-2 {
        fill: #3e97ff;
      }

      .cls-4 {
        fill: #fff;
      }

      .cls-5 {
        fill: url(#linear-gradient-2);
      }

      .cls-6 {
        fill: url(#linear-gradient-3);
      }
    </style>
    <linearGradient id="linear-gradient" x1="59.84" y1="8.65" x2="59.84" y2="5.72" gradientUnits="userSpaceOnUse">
      <stop offset="0" stop-color="#d4d4d4"/>
      <stop offset="1" stop-color="#5e5e5e"/>
    </linearGradient>
    <linearGradient id="linear-gradient-2" x1="29.25" y1="82.09" x2="29.25" y2="61.59" gradientUnits="userSpaceOnUse">
      <stop offset="0" stop-color="#fff"/>
      <stop offset="0" stop-color="#b5b5b5"/>
      <stop offset=".2" stop-color="#b1b1b1"/>
      <stop offset=".4" stop-color="#a6a6a6"/>
      <stop offset=".58" stop-color="#939393"/>
      <stop offset=".76" stop-color="#787878"/>
      <stop offset=".94" stop-color="#565656"/>
      <stop offset="1" stop-color="#4a4a4a"/>
    </linearGradient>
    <linearGradient id="linear-gradient-3" x1="90.43" y1="82.09" x2="90.43" y2="61.59" xlink:href="#linear-gradient-2"/>
  </defs>
  <path class="cls-2" d="m40.12.05c13.2-.02,26.4-.03,39.6-.05.21,1.17.41,2.33.62,3.5-13.68-.02-27.36-.03-41.04-.05.27-1.13.55-2.27.82-3.4Z"/>
  <path class="cls-1" d="m38.83,5.76c14.08-.01,28.16-.03,42.24-.04.22.98.44,1.96.66,2.94-14.59-.01-29.18-.03-43.77-.04.29-.95.59-1.9.88-2.85Z"/>
  <path class="cls-4" d="m59.21,10.89h-22.8c-.25,1.06-.5,2.11-.76,3.17,1.42,1.31,2.82,2.73,4.19,4.25,14.23,15.84,18.11,35.97,19.09,49.88,1.09-13.78,5.06-33.42,18.81-49.52,1.45-1.7,2.95-3.28,4.46-4.75-.23-1.03-.46-2.06-.69-3.1-7.44.02-14.88.05-22.32.07Z"/>
  <path class="cls-2" d="m20.81,14.93l-9.37,34.92c5.85.79,16.6,3.03,27.81,10.4,10.61,6.98,16.78,15.36,19.88,20.29-.41-1.44-.9-2.82-1.44-4.12-7.97-19.16-29.83-27.05-40.68-30.07,2.4-8.86,4.81-17.72,7.21-26.57,2.37.46,5.14,1.19,8.14,2.37,4.29,1.68,7.69,3.76,10.2,5.56-1.73-2.25-4.9-5.78-9.89-8.65-4.72-2.71-9.1-3.71-11.84-4.12Z"/>
  <path class="cls-4" d="m16.17,27.5l-7.31-1.85L0,60.25c9.16-.58,28.28-.39,46.55,11.33,5.21,3.34,9.42,7.02,12.77,10.51-1.35-2.12-2.89-4.19-4.63-6.18-15.18-17.29-38.42-19.64-48.92-19.98,2.13-8.69,4.26-17.37,6.39-26.06l3.3.72.72-3.09Z"/>
  <path class="cls-5" d="m2.78,61.59c-.89,4.12-1.79,8.24-2.68,12.36,8.6-1.95,23.75-4.05,41.1.93,6.85,1.96,12.6,4.61,17.2,7.21-.96-.81-1.95-1.6-2.99-2.37-15.61-11.52-34.5-12.73-48.72-11.54.31-2.16.62-4.33.93-6.49-1.61-.03-3.23-.07-4.84-.1Z"/>
  <path class="cls-4" d="m7.21,74.98l-1.34,8.34c7.81-2.33,19.22-4.69,32.96-3.91,7.62.43,14.25,1.72,19.67,3.19-4.58-2.29-10.28-4.6-16.99-6.28-14.13-3.53-26.38-2.63-34.3-1.34Z"/>
  <path class="cls-2" d="m98.88,14.93l9.37,34.92c-5.85.79-16.6,3.03-27.81,10.4-10.61,6.98-16.78,15.36-19.88,20.29.41-1.44.9-2.82,1.44-4.12,7.97-19.16,29.83-27.05,40.68-30.07-2.4-8.86-4.81-17.72-7.21-26.57-2.37.46-5.14,1.19-8.14,2.37-4.29,1.68-7.69,3.76-10.2,5.56,1.73-2.25,4.9-5.78,9.89-8.65,4.72-2.71,9.1-3.71,11.84-4.12Z"/>
  <path class="cls-4" d="m103.51,27.5l7.31-1.85,8.86,34.61c-9.16-.58-28.28-.39-46.55,11.33-5.21,3.34-9.42,7.02-12.77,10.51,1.35-2.12,2.89-4.19,4.63-6.18,15.18-17.29,38.42-19.64,48.92-19.98-2.13-8.69-4.26-17.37-6.39-26.06l-3.3.72-.72-3.09Z"/>
  <path class="cls-6" d="m116.9,61.59c.89,4.12,1.79,8.24,2.68,12.36-8.6-1.95-23.75-4.05-41.1.93-6.85,1.96-12.6,4.61-17.2,7.21.96-.81,1.95-1.6,2.99-2.37,15.61-11.52,34.5-12.73,48.72-11.54-.31-2.16-.62-4.33-.93-6.49,1.61-.03,3.23-.07,4.84-.1Z"/>
  <path class="cls-4" d="m112.47,74.98l1.34,8.34c-7.81-2.33-19.22-4.69-32.96-3.91-7.62.43-14.25,1.72-19.67,3.19,4.58-2.29,10.28-4.6,16.99-6.28,14.13-3.53,26.38-2.63,34.3-1.34Z"/>
  <path class="cls-2" d="m50.03,14.91l13.48-.06c3.09.6,5.2,3.28,5.06,6.08-.11,2.22-1.63,4.24-3.86,5.13l4.56,4.94h-3.23c-1.56-1.52-3.12-3.04-4.68-4.56-2.35-.02-4.7-.04-7.06-.06.74-.84,1.48-1.69,2.22-2.53,2.23-.01,4.45-.02,6.68-.03,1.62-.43,2.8-1.65,2.91-2.94.16-1.8-1.74-3.87-4.43-3.73h-9.43l-2.22-2.22Z"/>
  <path class="cls-3" d="m64.17,19.44c-.28.81-.57,1.62-.85,2.44-2.23-.04-4.45-.08-6.68-.13-1.88.1-3.36,1.53-3.51,3.23-.12,1.4.68,2.79,2.03,3.48,1.78.04,3.57.08,5.35.13.72.74,1.43,1.48,2.15,2.22-2.57-.03-5.15-.06-7.72-.09-2.75-.57-4.71-3.08-4.59-5.89.12-2.81,2.27-5.14,5.06-5.47,2.92.03,5.84.06,8.77.09Z"/>
</svg>