<?xml version="1.0" encoding="utf-8"?>
<!-- Generator: Adobe Illustrator 27.9.0, SVG Export Plug-In . SVG Version: 6.00 Build 0)  -->
<svg version="1.1" id="Layer_1" xmlns="http://www.w3.org/2000/svg" xmlns:xlink="http://www.w3.org/1999/xlink" x="0px" y="0px"
	 viewBox="0 0 78 56" style="enable-background:new 0 0 78 56;" xml:space="preserve">
<style type="text/css">
	.st0{fill:#3E97FF;}
	.st1{fill:url(#SVGID_1_);}
	.st2{fill:#FFFFFF;}
	.st3{fill:url(#SVGID_00000158021777941150929280000014535073139714951304_);}
	.st4{fill:url(#SVGID_00000123419278846589280920000014866077602960366509_);}
</style>
<g>
	<path class="st0" d="M26.3,1c8.5,0,17,0,25.5,0c0.1,0.8,0.3,1.5,0.4,2.3c-8.8,0-17.6,0-26.4,0C26,2.4,26.1,1.7,26.3,1z"/>
	<linearGradient id="SVGID_1_" gradientUnits="userSpaceOnUse" x1="39.0247" y1="6.4978" x2="39.0247" y2="4.6077">
		<stop  offset="0" style="stop-color:#D4D4D4"/>
		<stop  offset="1" style="stop-color:#5E5E5E"/>
	</linearGradient>
	<path class="st1" d="M25.5,4.6c9.1,0,18.1,0,27.2,0c0.1,0.6,0.3,1.3,0.4,1.9c-9.4,0-18.8,0-28.2,0C25.1,5.9,25.3,5.2,25.5,4.6z"/>
	<path class="st2" d="M38.6,7.9H23.9c-0.2,0.7-0.3,1.4-0.5,2c0.9,0.8,1.8,1.8,2.7,2.7c9.2,10.2,11.7,23.2,12.3,32.1
		c0.7-8.9,3.3-21.5,12.1-31.9c0.9-1.1,1.9-2.1,2.9-3.1c-0.1-0.7-0.3-1.3-0.4-2C48.2,7.9,43.4,7.9,38.6,7.9z"/>
	<path class="st0" d="M13.9,10.5L7.9,33c3.8,0.5,10.7,2,17.9,6.7c6.8,4.5,10.8,9.9,12.8,13.1c-0.3-0.9-0.6-1.8-0.9-2.7
		c-5.1-12.3-19.2-17.4-26.2-19.4c1.5-5.7,3.1-11.4,4.6-17.1c1.5,0.3,3.3,0.8,5.2,1.5c2.8,1.1,4.9,2.4,6.6,3.6
		c-1.1-1.4-3.2-3.7-6.4-5.6C18.5,11.4,15.7,10.8,13.9,10.5z"/>
	<path class="st2" d="M10.9,18.6l-4.7-1.2L0.5,39.7c5.9-0.4,18.2-0.3,30,7.3c3.4,2.2,6.1,4.5,8.2,6.8c-0.9-1.4-1.9-2.7-3-4
		C25.9,38.7,11,37.2,4.2,36.9c1.4-5.6,2.7-11.2,4.1-16.8l2.1,0.5L10.9,18.6z"/>
	
		<linearGradient id="SVGID_00000176742694448284099510000015877804800561836169_" gradientUnits="userSpaceOnUse" x1="19.3279" y1="53.7835" x2="19.3279" y2="40.5859">
		<stop  offset="0" style="stop-color:#FFFFFF"/>
		<stop  offset="0" style="stop-color:#B5B5B5"/>
		<stop  offset="0.2045" style="stop-color:#B1B1B1"/>
		<stop  offset="0.3955" style="stop-color:#A6A6A6"/>
		<stop  offset="0.5812" style="stop-color:#939393"/>
		<stop  offset="0.7635" style="stop-color:#797979"/>
		<stop  offset="0.9418" style="stop-color:#575757"/>
		<stop  offset="1" style="stop-color:#4A4A4A"/>
	</linearGradient>
	<path style="fill:url(#SVGID_00000176742694448284099510000015877804800561836169_);" d="M2.3,40.6c-0.6,2.7-1.1,5.3-1.7,8
		c5.5-1.3,15.3-2.6,26.5,0.6c4.4,1.3,8.1,3,11.1,4.6c-0.6-0.5-1.3-1-1.9-1.5c-10-7.4-22.2-8.2-31.4-7.4C5,43.4,5.2,42,5.4,40.7
		C4.4,40.6,3.3,40.6,2.3,40.6z"/>
	<path class="st2" d="M5.1,49.2l-0.9,5.4c5-1.5,12.4-3,21.2-2.5c4.9,0.3,9.2,1.1,12.7,2.1c-3-1.5-6.6-3-10.9-4
		C18.1,47.8,10.2,48.4,5.1,49.2z"/>
	<path class="st0" d="M64.2,10.5l6,22.5c-3.8,0.5-10.7,2-17.9,6.7c-6.8,4.5-10.8,9.9-12.8,13.1c0.3-0.9,0.6-1.8,0.9-2.7
		c5.1-12.3,19.2-17.4,26.2-19.4c-1.5-5.7-3.1-11.4-4.6-17.1c-1.5,0.3-3.3,0.8-5.2,1.5c-2.8,1.1-4.9,2.4-6.6,3.6
		c1.1-1.4,3.2-3.7,6.4-5.6C59.6,11.4,62.4,10.8,64.2,10.5z"/>
	<path class="st2" d="M67.1,18.6l4.7-1.2l5.7,22.3c-5.9-0.4-18.2-0.3-30,7.3c-3.4,2.2-6.1,4.5-8.2,6.8c0.9-1.4,1.9-2.7,3-4
		c9.8-11.1,24.7-12.6,31.5-12.9c-1.4-5.6-2.7-11.2-4.1-16.8l-2.1,0.5L67.1,18.6z"/>
	
		<linearGradient id="SVGID_00000139255245615289494880000008067194612768242354_" gradientUnits="userSpaceOnUse" x1="58.7216" y1="53.7835" x2="58.7216" y2="40.5859">
		<stop  offset="0" style="stop-color:#FFFFFF"/>
		<stop  offset="0" style="stop-color:#B5B5B5"/>
		<stop  offset="0.2045" style="stop-color:#B1B1B1"/>
		<stop  offset="0.3955" style="stop-color:#A6A6A6"/>
		<stop  offset="0.5812" style="stop-color:#939393"/>
		<stop  offset="0.7635" style="stop-color:#797979"/>
		<stop  offset="0.9418" style="stop-color:#575757"/>
		<stop  offset="1" style="stop-color:#4A4A4A"/>
	</linearGradient>
	<path style="fill:url(#SVGID_00000139255245615289494880000008067194612768242354_);" d="M75.8,40.6c0.6,2.7,1.1,5.3,1.7,8
		C72,47.3,62.2,45.9,51,49.1c-4.4,1.3-8.1,3-11.1,4.6c0.6-0.5,1.3-1,1.9-1.5c10-7.4,22.2-8.2,31.4-7.4c-0.2-1.4-0.4-2.8-0.6-4.2
		C73.7,40.6,74.7,40.6,75.8,40.6z"/>
	<path class="st2" d="M72.9,49.2l0.9,5.4c-5-1.5-12.4-3-21.2-2.5c-4.9,0.3-9.2,1.1-12.7,2.1c3-1.5,6.6-3,10.9-4
		C59.9,47.8,67.8,48.4,72.9,49.2z"/>
	<path class="st0" d="M32.7,10.5l8.7,0c2,0.4,3.4,2.1,3.3,3.9c-0.1,1.4-1.1,2.7-2.5,3.3l2.9,3.2H43c-1-1-2-2-3-2.9c-1.5,0-3,0-4.5,0
		c0.5-0.5,1-1.1,1.4-1.6c1.4,0,2.9,0,4.3,0c1-0.3,1.8-1.1,1.9-1.9c0.1-1.2-1.1-2.5-2.9-2.4h-6.1L32.7,10.5z"/>
	<path d="M41.8,13.4c-0.2,0.5-0.4,1-0.6,1.6c-1.4,0-2.9-0.1-4.3-0.1c-1.2,0.1-2.2,1-2.3,2.1c-0.1,0.9,0.4,1.8,1.3,2.2
		c1.1,0,2.3,0.1,3.4,0.1c0.5,0.5,0.9,1,1.4,1.4c-1.7,0-3.3,0-5-0.1c-1.8-0.4-3-2-3-3.8c0.1-1.8,1.5-3.3,3.3-3.5
		C38.1,13.4,39.9,13.4,41.8,13.4z"/>
</g>
</svg>
