<?xml version="1.0" encoding="utf-8"?>
<!-- Generator: Adobe Illustrator 27.9.0, SVG Export Plug-In . SVG Version: 6.00 Build 0)  -->
<svg version="1.1" id="Layer_1" xmlns="http://www.w3.org/2000/svg" xmlns:xlink="http://www.w3.org/1999/xlink" x="0px" y="0px"
	 viewBox="0 0 128 24" style="enable-background:new 0 0 128 24;" xml:space="preserve">
<style type="text/css">
	.st0{fill:#303B68;}
	.st1{fill:#3E97FF;}
	.st2{fill:url(#SVGID_1_);}
	.st3{fill:url(#SVGID_00000169539778174446722070000002671039000843671459_);}
	.st4{fill:url(#SVGID_00000099641975335667562240000011924628650472128132_);}
	.st5{fill:#FFFFFF;}
</style>
<g>
	<path class="st0" d="M45.4,5.5c2.2,0,3.9,0.8,5,2.2L48.6,9c-0.7-0.9-1.8-1.5-3.2-1.5c-2.5,0-4,1.7-4,4.4c0,2.7,1.5,4.4,4,4.4
		c1.4,0,2.5-0.5,3.2-1.5l1.8,1.2c-1.1,1.4-2.8,2.2-5,2.2c-3.9,0-6.2-2.6-6.2-6.4C39.2,8.1,41.6,5.5,45.4,5.5z"/>
	<path class="st0" d="M52.3,5.6c0.7,0,1.2,0.5,1.2,1.2c0,0.7-0.5,1.2-1.2,1.2c-0.7,0-1.2-0.5-1.2-1.2C51.1,6.1,51.7,5.6,52.3,5.6z
		 M51.2,9.3h2.1v8.9h-2.1V9.3z"/>
	<path class="st0" d="M58.7,9.1v1.9c-1.4,0-2.3,0.7-2.3,2.1v5h-2.1v-5C54.3,10.5,56,9.1,58.7,9.1z"/>
	<path class="st0" d="M63.4,9.2c2.7,0,4.6,1.8,4.6,4.5c0,2.7-1.8,4.6-4.6,4.6s-4.6-1.8-4.6-4.6C58.9,11,60.7,9.2,63.4,9.2z
		 M63.4,16.4c1.5,0,2.5-1,2.5-2.6c0-1.6-1-2.6-2.5-2.6c-1.5,0-2.4,1-2.4,2.6C61,15.4,62,16.4,63.4,16.4z"/>
	<path class="st0" d="M68.8,5.8h5.9c2,0,3.3,1.4,3.3,3.3c0,1.2-0.5,1.9-1.3,2.4c1.2,0.4,2.1,1.4,2.1,3.1c0,2.1-1.4,3.6-3.7,3.6h-6.4
		V5.8z M75.8,9.2c0-0.8-0.5-1.4-1.4-1.4H71v2.7h3.5C75.3,10.5,75.8,10,75.8,9.2z M76.7,14.4c0-1.1-0.7-1.8-1.8-1.8H71v3.5H75
		C76,16.1,76.7,15.4,76.7,14.4z"/>
	<path class="st0" d="M84.1,9.2c2.7,0,4.6,1.8,4.6,4.5c0,2.7-1.8,4.6-4.6,4.6c-2.7,0-4.6-1.8-4.6-4.6C79.5,11,81.3,9.2,84.1,9.2z
		 M84.1,16.4c1.5,0,2.5-1,2.5-2.6c0-1.6-1-2.6-2.5-2.6c-1.5,0-2.4,1-2.4,2.6C81.6,15.4,82.6,16.4,84.1,16.4z"/>
	<path class="st0" d="M94,9.2c2.7,0,4.6,1.8,4.6,4.5c0,2.7-1.8,4.6-4.6,4.6c-2.7,0-4.6-1.8-4.6-4.6C89.4,11,91.2,9.2,94,9.2z
		 M93.9,16.4c1.5,0,2.5-1,2.5-2.6c0-1.6-1-2.6-2.5-2.6c-1.5,0-2.4,1-2.4,2.6C91.5,15.4,92.5,16.4,93.9,16.4z"/>
	<path class="st0" d="M99.3,5.8h2.1v9l4-5.4h2.5l-3.3,4.4l3.2,4.4h-2.5l-1.9-2.7l-2,2.7h-2.1V5.8z"/>
	<path class="st0" d="M115.3,15.5c0,1.8-1.4,2.8-3.5,2.8c-1.9,0-3.1-0.8-3.6-1.3l1.1-1.7c0.7,0.7,1.7,1.1,2.5,1.1
		c0.7,0,1.3-0.2,1.3-0.8c0-1.5-4.8-0.6-4.8-3.8c0-1.6,1.2-2.6,3.2-2.6c1.8,0,2.9,0.7,3.7,1.3l-1.1,1.6c-0.9-0.8-1.9-1-2.6-1
		c-0.7,0-1.1,0.2-1.1,0.6C110.4,13,115.3,12.2,115.3,15.5z"/>
</g>
<path class="st1" d="M12.3,0.2c3.8,0,7.5,0,11.3,0c0.1,0.3,0.1,0.7,0.2,1c-3.9,0-7.8,0-11.7,0C12.2,0.8,12.2,0.5,12.3,0.2z"/>
<linearGradient id="SVGID_1_" gradientUnits="userSpaceOnUse" x1="17.9368" y1="2.6522" x2="17.9368" y2="1.8151">
	<stop  offset="0" style="stop-color:#D4D4D4"/>
	<stop  offset="1" style="stop-color:#5E5E5E"/>
</linearGradient>
<path class="st2" d="M11.9,1.8c4,0,8,0,12,0c0.1,0.3,0.1,0.6,0.2,0.8c-4.2,0-8.3,0-12.5,0C11.8,2.4,11.9,2.1,11.9,1.8z"/>
<path class="st0" d="M18,3.3h-6.5c-0.1,0.3-0.1,0.6-0.2,0.9c0.4,0.4,0.8,0.8,1.2,1.2c4.1,4.5,5.2,10.3,5.4,14.2
	c0.3-3.9,1.4-9.5,5.4-14.1c0.4-0.5,0.8-0.9,1.3-1.4c-0.1-0.3-0.1-0.6-0.2-0.9C22.2,3.3,20.1,3.3,18,3.3z"/>
<path class="st1" d="M6.8,4.4l-2.7,10c1.7,0.2,4.7,0.9,7.9,3c3,2,4.8,4.4,5.7,5.8c-0.1-0.4-0.3-0.8-0.4-1.2
	c-2.3-5.5-8.5-7.7-11.6-8.6c0.7-2.5,1.4-5.1,2.1-7.6C8.5,6,9.2,6.2,10.1,6.5C11.3,7,12.3,7.6,13,8.1c-0.5-0.6-1.4-1.6-2.8-2.5
	C8.8,4.8,7.6,4.6,6.8,4.4z"/>
<path class="st0" d="M5.5,8L3.4,7.5l-2.5,9.9c2.6-0.2,8.1-0.1,13.3,3.2c1.5,1,2.7,2,3.6,3c-0.4-0.6-0.8-1.2-1.3-1.8
	c-4.3-4.9-11-5.6-14-5.7c0.6-2.5,1.2-5,1.8-7.4l0.9,0.2L5.5,8z"/>
<linearGradient id="SVGID_00000000944365364773650980000013604082418459911848_" gradientUnits="userSpaceOnUse" x1="9.2143" y1="23.592" x2="9.2143" y2="17.7477">
	<stop  offset="0" style="stop-color:#FFFFFF"/>
	<stop  offset="0" style="stop-color:#B5B5B5"/>
	<stop  offset="0.2045" style="stop-color:#B1B1B1"/>
	<stop  offset="0.3955" style="stop-color:#A6A6A6"/>
	<stop  offset="0.5812" style="stop-color:#939393"/>
	<stop  offset="0.7635" style="stop-color:#797979"/>
	<stop  offset="0.9418" style="stop-color:#575757"/>
	<stop  offset="1" style="stop-color:#4A4A4A"/>
</linearGradient>
<path style="fill:url(#SVGID_00000000944365364773650980000013604082418459911848_);" d="M1.7,17.7c-0.3,1.2-0.5,2.3-0.8,3.5
	c2.5-0.6,6.8-1.2,11.7,0.3c2,0.6,3.6,1.3,4.9,2.1c-0.3-0.2-0.6-0.5-0.9-0.7c-4.5-3.3-9.8-3.6-13.9-3.3C2.9,19,3,18.4,3,17.8
	C2.6,17.8,2.1,17.8,1.7,17.7z"/>
<path class="st0" d="M2.9,21.6l-0.4,2.4c2.2-0.7,5.5-1.3,9.4-1.1c2.2,0.1,4.1,0.5,5.6,0.9c-1.3-0.7-2.9-1.3-4.8-1.8
	C8.7,20.9,5.2,21.2,2.9,21.6z"/>
<path class="st1" d="M29.1,4.4l2.7,10c-1.7,0.2-4.7,0.9-7.9,3c-3,2-4.8,4.4-5.7,5.8c0.1-0.4,0.3-0.8,0.4-1.2
	c2.3-5.5,8.5-7.7,11.6-8.6c-0.7-2.5-1.4-5.1-2.1-7.6c-0.7,0.1-1.5,0.3-2.3,0.7c-1.2,0.5-2.2,1.1-2.9,1.6c0.5-0.6,1.4-1.6,2.8-2.5
	C27,4.8,28.3,4.6,29.1,4.4z"/>
<path class="st0" d="M30.4,8l2.1-0.5l2.5,9.9c-2.6-0.2-8.1-0.1-13.3,3.2c-1.5,1-2.7,2-3.6,3c0.4-0.6,0.8-1.2,1.3-1.8
	c4.3-4.9,11-5.6,14-5.7c-0.6-2.5-1.2-5-1.8-7.4l-0.9,0.2L30.4,8z"/>
<linearGradient id="SVGID_00000078744544571841929250000011488807460308045236_" gradientUnits="userSpaceOnUse" x1="26.6593" y1="23.592" x2="26.6593" y2="17.7477">
	<stop  offset="0" style="stop-color:#FFFFFF"/>
	<stop  offset="0" style="stop-color:#B5B5B5"/>
	<stop  offset="0.2045" style="stop-color:#B1B1B1"/>
	<stop  offset="0.3955" style="stop-color:#A6A6A6"/>
	<stop  offset="0.5812" style="stop-color:#939393"/>
	<stop  offset="0.7635" style="stop-color:#797979"/>
	<stop  offset="0.9418" style="stop-color:#575757"/>
	<stop  offset="1" style="stop-color:#4A4A4A"/>
</linearGradient>
<path style="fill:url(#SVGID_00000078744544571841929250000011488807460308045236_);" d="M34.2,17.7c0.3,1.2,0.5,2.3,0.8,3.5
	c-2.5-0.6-6.8-1.2-11.7,0.3c-2,0.6-3.6,1.3-4.9,2.1c0.3-0.2,0.6-0.5,0.9-0.7c4.5-3.3,9.8-3.6,13.9-3.3c-0.1-0.6-0.2-1.2-0.3-1.9
	C33.3,17.8,33.7,17.8,34.2,17.7z"/>
<path class="st0" d="M32.9,21.6l0.4,2.4c-2.2-0.7-5.5-1.3-9.4-1.1c-2.2,0.1-4.1,0.5-5.6,0.9c1.3-0.7,2.9-1.3,4.8-1.8
	C27.2,20.9,30.7,21.2,32.9,21.6z"/>
<g>
	<path class="st1" d="M15.1,4.4l3.8,0c0.9,0.2,1.5,0.9,1.4,1.7c0,0.6-0.5,1.2-1.1,1.5L20.6,9h-0.9c-0.4-0.4-0.9-0.9-1.3-1.3
		c-0.7,0-1.3,0-2,0C16.6,7.5,16.8,7.2,17,7c0.6,0,1.3,0,1.9,0c0.5-0.1,0.8-0.5,0.8-0.8c0-0.5-0.5-1.1-1.3-1.1h-2.7L15.1,4.4z"/>
	<path class="st5" d="M19.2,5.7C19.1,6,19,6.2,18.9,6.4c-0.6,0-1.3,0-1.9,0c-0.5,0-1,0.4-1,0.9c0,0.4,0.2,0.8,0.6,1c0.5,0,1,0,1.5,0
		c0.2,0.2,0.4,0.4,0.6,0.6c-0.7,0-1.5,0-2.2,0c-0.8-0.2-1.3-0.9-1.3-1.7c0-0.8,0.6-1.5,1.4-1.6C17.5,5.7,18.3,5.7,19.2,5.7z"/>
</g>
</svg>
