<?xml version="1.0" encoding="utf-8"?>
<!-- Generator: Adobe Illustrator 27.9.0, SVG Export Plug-In . SVG Version: 6.00 Build 0)  -->
<svg version="1.1" id="Layer_1" xmlns="http://www.w3.org/2000/svg" xmlns:xlink="http://www.w3.org/1999/xlink" x="0px" y="0px"
	 viewBox="0 0 128 24" style="enable-background:new 0 0 128 24;" xml:space="preserve">
<style type="text/css">
	.st0{display:none;}
	.st1{display:inline;fill:#FFFFFF;}
	.st2{fill:#3E97FF;}
	.st3{fill:url(#SVGID_1_);}
	.st4{fill:#FFFFFF;}
	.st5{fill:url(#SVGID_00000115484203578190470090000007755528920304220834_);}
	.st6{fill:url(#SVGID_00000161629248237907047590000005837404515224944041_);}
</style>
<g class="st0">
	<path class="st1" d="M50.9,6.9c1.4,0,2.5,0.5,3.2,1.5l1.8-1.2c-1.1-1.4-2.8-2.2-5-2.2c-3.9,0-6.2,2.6-6.2,6.4
		c0,3.9,2.4,6.4,6.2,6.4c2.2,0,3.9-0.8,5-2.2l-1.8-1.2c-0.7,0.9-1.8,1.5-3.2,1.5c-2.5,0-4-1.7-4-4.4C46.9,8.6,48.3,6.9,50.9,6.9z"/>
	<path class="st1" d="M57.8,4.9c-0.7,0-1.2,0.5-1.2,1.2c0,0.7,0.5,1.2,1.2,1.2c0.7,0,1.2-0.5,1.2-1.2C58.9,5.4,58.4,4.9,57.8,4.9z"
		/>
	<rect x="56.7" y="8.6" class="st1" width="2.1" height="8.9"/>
	<path class="st1" d="M59.8,12.5v5h2.1v-5c0-1.4,0.8-2.1,2.3-2.1V8.4C61.5,8.4,59.8,9.8,59.8,12.5z"/>
	<path class="st1" d="M68.9,8.5c-2.7,0-4.6,1.8-4.6,4.5c0,2.7,1.8,4.6,4.6,4.6s4.6-1.8,4.6-4.6C73.5,10.3,71.6,8.5,68.9,8.5z
		 M68.9,15.7c-1.5,0-2.4-1-2.4-2.6c0-1.6,1-2.6,2.4-2.6c1.5,0,2.5,1,2.5,2.6C71.3,14.7,70.4,15.7,68.9,15.7z"/>
	<path class="st1" d="M82.3,10.7c0.8-0.4,1.3-1.2,1.3-2.4c0-1.9-1.3-3.3-3.3-3.3h-5.9v12.4h6.4c2.3,0,3.7-1.5,3.7-3.6
		C84.4,12.1,83.4,11.1,82.3,10.7z M76.5,7.1h3.5c0.8,0,1.4,0.5,1.4,1.4c0,0.8-0.5,1.4-1.4,1.4h-3.5V7.1z M80.4,15.4h-3.9v-3.5h3.9
		c1,0,1.8,0.7,1.8,1.8C82.2,14.7,81.5,15.4,80.4,15.4z"/>
	<path class="st1" d="M89.5,8.5c-2.7,0-4.6,1.8-4.6,4.5c0,2.7,1.8,4.6,4.6,4.6c2.7,0,4.6-1.8,4.6-4.6C94.1,10.3,92.3,8.5,89.5,8.5z
		 M89.5,15.7c-1.5,0-2.4-1-2.4-2.6c0-1.6,1-2.6,2.4-2.6c1.5,0,2.5,1,2.5,2.6C92,14.7,91,15.7,89.5,15.7z"/>
	<path class="st1" d="M99.4,8.5c-2.7,0-4.6,1.8-4.6,4.5c0,2.7,1.8,4.6,4.6,4.6c2.7,0,4.6-1.8,4.6-4.6C104,10.3,102.2,8.5,99.4,8.5z
		 M99.4,15.7c-1.5,0-2.4-1-2.4-2.6c0-1.6,1-2.6,2.4-2.6c1.5,0,2.5,1,2.5,2.6C101.9,14.7,100.9,15.7,99.4,15.7z"/>
	<polygon class="st1" points="110.9,8.6 106.9,14 106.9,5.1 104.8,5.1 104.8,17.4 106.9,17.4 108.9,14.7 110.9,17.4 113.4,17.4 
		110.2,13 113.5,8.6 	"/>
	<path class="st1" d="M115.9,11c0-0.4,0.4-0.6,1.1-0.6c0.7,0,1.6,0.3,2.6,1l1.1-1.6c-0.8-0.6-1.9-1.3-3.7-1.3c-2,0-3.2,0.9-3.2,2.6
		c0,3.2,4.8,2.3,4.8,3.8c0,0.5-0.5,0.8-1.3,0.8c-0.9,0-1.8-0.4-2.5-1.1l-1.1,1.7c0.5,0.5,1.8,1.3,3.6,1.3c2,0,3.5-1,3.5-2.8
		C120.7,11.5,115.9,12.3,115.9,11z"/>
</g>
<path class="st2" d="M12.4,0.3c3.8,0,7.5,0,11.3,0c0.1,0.3,0.1,0.7,0.2,1c-3.9,0-7.8,0-11.7,0C12.3,0.9,12.4,0.6,12.4,0.3z"/>
<linearGradient id="SVGID_1_" gradientUnits="userSpaceOnUse" x1="18.0573" y1="2.7355" x2="18.0573" y2="1.8985">
	<stop  offset="0" style="stop-color:#D4D4D4"/>
	<stop  offset="1" style="stop-color:#5E5E5E"/>
</linearGradient>
<path class="st3" d="M12.1,1.9c4,0,8,0,12,0c0.1,0.3,0.1,0.6,0.2,0.8c-4.2,0-8.3,0-12.5,0C11.9,2.5,12,2.2,12.1,1.9z"/>
<path class="st4" d="M18.1,3.4h-6.5c-0.1,0.3-0.1,0.6-0.2,0.9c0.4,0.4,0.8,0.8,1.2,1.2c4.1,4.5,5.2,10.3,5.4,14.2
	c0.3-3.9,1.4-9.5,5.4-14.1c0.4-0.5,0.8-0.9,1.3-1.4c-0.1-0.3-0.1-0.6-0.2-0.9C22.4,3.4,20.2,3.4,18.1,3.4z"/>
<path class="st2" d="M6.9,4.5l-2.7,10c1.7,0.2,4.7,0.9,7.9,3c3,2,4.8,4.4,5.7,5.8c-0.1-0.4-0.3-0.8-0.4-1.2
	c-2.3-5.5-8.5-7.7-11.6-8.6C6.5,11,7.2,8.4,7.9,5.9C8.6,6,9.4,6.2,10.2,6.6c1.2,0.5,2.2,1.1,2.9,1.6c-0.5-0.6-1.4-1.6-2.8-2.5
	C9,4.9,7.7,4.6,6.9,4.5z"/>
<path class="st4" d="M5.6,8.1L3.5,7.6L1,17.4c2.6-0.2,8.1-0.1,13.3,3.2c1.5,1,2.7,2,3.6,3c-0.4-0.6-0.8-1.2-1.3-1.8
	c-4.3-4.9-11-5.6-14-5.7c0.6-2.5,1.2-5,1.8-7.4L5.4,9L5.6,8.1z"/>
<linearGradient id="SVGID_00000018919233372700437760000007902573742925921936_" gradientUnits="userSpaceOnUse" x1="9.3348" y1="23.6754" x2="9.3348" y2="17.831">
	<stop  offset="0" style="stop-color:#FFFFFF"/>
	<stop  offset="0" style="stop-color:#B5B5B5"/>
	<stop  offset="0.2045" style="stop-color:#B1B1B1"/>
	<stop  offset="0.3955" style="stop-color:#A6A6A6"/>
	<stop  offset="0.5812" style="stop-color:#939393"/>
	<stop  offset="0.7635" style="stop-color:#797979"/>
	<stop  offset="0.9418" style="stop-color:#575757"/>
	<stop  offset="1" style="stop-color:#4A4A4A"/>
</linearGradient>
<path style="fill:url(#SVGID_00000018919233372700437760000007902573742925921936_);" d="M1.8,17.8C1.5,19,1.3,20.2,1,21.4
	c2.5-0.6,6.8-1.2,11.7,0.3c2,0.6,3.6,1.3,4.9,2.1c-0.3-0.2-0.6-0.5-0.9-0.7c-4.5-3.3-9.8-3.6-13.9-3.3c0.1-0.6,0.2-1.2,0.3-1.9
	C2.7,17.9,2.2,17.8,1.8,17.8z"/>
<path class="st4" d="M3,21.6L2.7,24c2.2-0.7,5.5-1.3,9.4-1.1c2.2,0.1,4.1,0.5,5.6,0.9c-1.3-0.7-2.9-1.3-4.8-1.8
	C8.8,21,5.3,21.3,3,21.6z"/>
<path class="st2" d="M29.2,4.5l2.7,10c-1.7,0.2-4.7,0.9-7.9,3c-3,2-4.8,4.4-5.7,5.8c0.1-0.4,0.3-0.8,0.4-1.2
	c2.3-5.5,8.5-7.7,11.6-8.6c-0.7-2.5-1.4-5.1-2.1-7.6c-0.7,0.1-1.5,0.3-2.3,0.7c-1.2,0.5-2.2,1.1-2.9,1.6c0.5-0.6,1.4-1.6,2.8-2.5
	C27.2,4.9,28.4,4.6,29.2,4.5z"/>
<path class="st4" d="M30.5,8.1l2.1-0.5l2.5,9.9c-2.6-0.2-8.1-0.1-13.3,3.2c-1.5,1-2.7,2-3.6,3c0.4-0.6,0.8-1.2,1.3-1.8
	c4.3-4.9,11-5.6,14-5.7c-0.6-2.5-1.2-5-1.8-7.4L30.7,9L30.5,8.1z"/>
<linearGradient id="SVGID_00000011736065004786707420000004099685615519762055_" gradientUnits="userSpaceOnUse" x1="26.7798" y1="23.6754" x2="26.7798" y2="17.831">
	<stop  offset="0" style="stop-color:#FFFFFF"/>
	<stop  offset="0" style="stop-color:#B5B5B5"/>
	<stop  offset="0.2045" style="stop-color:#B1B1B1"/>
	<stop  offset="0.3955" style="stop-color:#A6A6A6"/>
	<stop  offset="0.5812" style="stop-color:#939393"/>
	<stop  offset="0.7635" style="stop-color:#797979"/>
	<stop  offset="0.9418" style="stop-color:#575757"/>
	<stop  offset="1" style="stop-color:#4A4A4A"/>
</linearGradient>
<path style="fill:url(#SVGID_00000011736065004786707420000004099685615519762055_);" d="M34.3,17.8c0.3,1.2,0.5,2.3,0.8,3.5
	c-2.5-0.6-6.8-1.2-11.7,0.3c-2,0.6-3.6,1.3-4.9,2.1c0.3-0.2,0.6-0.5,0.9-0.7c4.5-3.3,9.8-3.6,13.9-3.3c-0.1-0.6-0.2-1.2-0.3-1.9
	C33.4,17.9,33.9,17.8,34.3,17.8z"/>
<path class="st4" d="M33.1,21.6l0.4,2.4c-2.2-0.7-5.5-1.3-9.4-1.1c-2.2,0.1-4.1,0.5-5.6,0.9c1.3-0.7,2.9-1.3,4.8-1.8
	C27.3,21,30.8,21.3,33.1,21.6z"/>
<path class="st2" d="M15.3,4.5l3.8,0c0.9,0.2,1.5,0.9,1.4,1.7c0,0.6-0.5,1.2-1.1,1.5l1.3,1.4h-0.9c-0.4-0.4-0.9-0.9-1.3-1.3
	c-0.7,0-1.3,0-2,0c0.2-0.2,0.4-0.5,0.6-0.7c0.6,0,1.3,0,1.9,0c0.5-0.1,0.8-0.5,0.8-0.8c0-0.5-0.5-1.1-1.3-1.1h-2.7L15.3,4.5z"/>
<path d="M19.3,5.8C19.2,6,19.1,6.3,19,6.5c-0.6,0-1.3,0-1.9,0c-0.5,0-1,0.4-1,0.9c0,0.4,0.2,0.8,0.6,1c0.5,0,1,0,1.5,0
	c0.2,0.2,0.4,0.4,0.6,0.6c-0.7,0-1.5,0-2.2,0c-0.8-0.2-1.3-0.9-1.3-1.7c0-0.8,0.6-1.5,1.4-1.6C17.6,5.8,18.5,5.8,19.3,5.8z"/>
<g>
	<path class="st4" d="M46.9,5.4c2.2,0,3.9,0.8,5,2.2l-1.8,1.2c-0.7-0.9-1.8-1.5-3.2-1.5c-2.5,0-4,1.7-4,4.4c0,2.7,1.5,4.4,4,4.4
		c1.4,0,2.5-0.5,3.2-1.5l1.8,1.2c-1.1,1.4-2.8,2.2-5,2.2c-3.9,0-6.2-2.6-6.2-6.4C40.6,8,43,5.4,46.9,5.4z"/>
	<path class="st4" d="M53.7,5.4c0.7,0,1.2,0.5,1.2,1.2c0,0.7-0.5,1.2-1.2,1.2c-0.7,0-1.2-0.5-1.2-1.2C52.6,6,53.1,5.4,53.7,5.4z
		 M52.7,9.2h2.1V18h-2.1V9.2z"/>
	<path class="st4" d="M60.2,9V11c-1.4,0-2.3,0.7-2.3,2.1v5h-2.1v-5C55.8,10.4,57.5,9,60.2,9z"/>
	<path class="st4" d="M64.9,9.1c2.7,0,4.6,1.8,4.6,4.5c0,2.7-1.8,4.6-4.6,4.6c-2.7,0-4.6-1.8-4.6-4.6C60.3,10.9,62.1,9.1,64.9,9.1z
		 M64.9,16.2c1.5,0,2.5-1,2.5-2.6c0-1.6-1-2.6-2.5-2.6c-1.5,0-2.4,1-2.4,2.6C62.4,15.3,63.4,16.2,64.9,16.2z"/>
	<path class="st4" d="M70.3,5.6h5.9c2,0,3.3,1.4,3.3,3.3c0,1.2-0.5,1.9-1.3,2.4c1.2,0.4,2.1,1.4,2.1,3.1c0,2.1-1.4,3.6-3.7,3.6h-6.4
		V5.6z M77.3,9.1c0-0.8-0.5-1.4-1.4-1.4h-3.5v2.7h3.5C76.7,10.4,77.3,9.9,77.3,9.1z M78.2,14.2c0-1.1-0.7-1.8-1.8-1.8h-3.9V16h3.9
		C77.5,16,78.2,15.3,78.2,14.2z"/>
	<path class="st4" d="M85.5,9.1c2.7,0,4.6,1.8,4.6,4.5c0,2.7-1.8,4.6-4.6,4.6c-2.7,0-4.6-1.8-4.6-4.6C80.9,10.9,82.8,9.1,85.5,9.1z
		 M85.5,16.2c1.5,0,2.5-1,2.5-2.6c0-1.6-1-2.6-2.5-2.6c-1.5,0-2.4,1-2.4,2.6C83.1,15.3,84,16.2,85.5,16.2z"/>
	<path class="st4" d="M95.4,9.1c2.7,0,4.6,1.8,4.6,4.5c0,2.7-1.8,4.6-4.6,4.6c-2.7,0-4.6-1.8-4.6-4.6C90.8,10.9,92.7,9.1,95.4,9.1z
		 M95.4,16.2c1.5,0,2.5-1,2.5-2.6c0-1.6-1-2.6-2.5-2.6c-1.5,0-2.4,1-2.4,2.6C92.9,15.3,93.9,16.2,95.4,16.2z"/>
	<path class="st4" d="M100.8,5.6h2.1v9l4-5.4h2.5l-3.3,4.4l3.2,4.4h-2.5l-1.9-2.7l-2,2.7h-2.1V5.6z"/>
	<path class="st4" d="M116.7,15.4c0,1.8-1.4,2.8-3.5,2.8c-1.9,0-3.1-0.8-3.6-1.3l1.1-1.7c0.7,0.7,1.7,1.1,2.5,1.1
		c0.7,0,1.3-0.2,1.3-0.8c0-1.5-4.8-0.6-4.8-3.8C109.8,10,111,9,113,9c1.8,0,2.9,0.7,3.7,1.3l-1.1,1.6c-0.9-0.8-1.9-1-2.6-1
		c-0.7,0-1.1,0.2-1.1,0.6C111.9,12.9,116.7,12,116.7,15.4z"/>
</g>
</svg>
